<svg xmlns="http://www.w3.org/2000/svg" viewBox="0 0 24 24" fill="#FF2442">
  <path d="M12 2C6.48 2 2 6.48 2 12s4.48 10 10 10 10-4.48 10-10S17.52 2 12 2zm4.64 6.8c-.15 1.58-.54 2.79-.92 3.7-.47 1.13-1.07 1.87-1.68 2.34-.61.47-1.24.69-1.85.69-.25 0-.49-.04-.72-.11-.23-.07-.44-.18-.63-.32-.38-.28-.72-.69-.97-1.22-.25-.53-.4-1.16-.4-1.88 0-.36.04-.73.12-1.1.08-.37.2-.73.35-1.07.15-.34.34-.65.55-.93.21-.28.45-.52.71-.71.26-.19.54-.33.84-.42.3-.09.61-.13.93-.13.64 0 1.25.16 1.8.48.55.32 1.02.78 1.38 1.36.36.58.57 1.26.57 2.02 0 .32-.03.63-.08.93z"/>
  <circle cx="8.5" cy="8.5" r="1.5"/>
  <circle cx="15.5" cy="8.5" r="1.5"/>
</svg>